<svg width="77" height="16" viewBox="0 0 77 16" fill="none" xmlns="http://www.w3.org/2000/svg">
<rect x="72" width="4" height="4" rx="2" fill="#FF7F22"/>
<rect x="67" width="4" height="4" rx="2" fill="#00E778"/>
<rect x="62" width="4" height="4" rx="2" fill="#FFF500"/>
<rect x="57" width="4" height="4" rx="2" fill="#109BFF"/>
<path d="M1.656 13.024C1.336 13.024 1.176 12.936 1.176 12.76V4.84C1.176 4.664 1.336 4.576 1.656 4.576H1.752C2.072 4.576 2.232 4.664 2.232 4.84V8.236H6.576V4.84C6.576 4.664 6.736 4.576 7.056 4.576H7.152C7.472 4.576 7.632 4.664 7.632 4.84V12.76C7.632 12.936 7.472 13.024 7.152 13.024H7.056C6.736 13.024 6.576 12.936 6.576 12.76V9.148H2.232V12.76C2.232 12.936 2.072 13.024 1.752 13.024H1.656ZM12.2448 13.072C11.3408 13.072 10.6488 12.8 10.1688 12.256C9.69678 11.712 9.46078 10.924 9.46078 9.892C9.46078 8.852 9.70078 8.052 10.1808 7.492C10.6608 6.932 11.3488 6.652 12.2448 6.652C13.1248 6.652 13.7968 6.932 14.2608 7.492C14.7328 8.044 14.9688 8.844 14.9688 9.892C14.9688 10.932 14.7368 11.724 14.2728 12.268C13.8168 12.804 13.1408 13.072 12.2448 13.072ZM12.2088 12.208C12.7928 12.208 13.2248 12.02 13.5048 11.644C13.7848 11.26 13.9248 10.668 13.9248 9.868C13.9248 9.068 13.7848 8.476 13.5048 8.092C13.2248 7.708 12.7928 7.516 12.2088 7.516C11.6248 7.516 11.1968 7.708 10.9248 8.092C10.6528 8.468 10.5168 9.06 10.5168 9.868C10.5168 10.668 10.6528 11.26 10.9248 11.644C11.1968 12.02 11.6248 12.208 12.2088 12.208ZM18.1648 13.072C17.7648 13.072 17.4048 12.952 17.0848 12.712C16.7728 12.464 16.6168 12.032 16.6168 11.416V4.24C16.6168 4.064 16.7768 3.976 17.0968 3.976H17.1448C17.4648 3.976 17.6248 4.064 17.6248 4.24V11.32C17.6248 11.656 17.6808 11.888 17.7928 12.016C17.9128 12.144 18.0728 12.208 18.2728 12.208C18.4248 12.208 18.5368 12.2 18.6088 12.184C18.6888 12.16 18.7488 12.148 18.7888 12.148C18.8608 12.148 18.9208 12.224 18.9688 12.376C19.0168 12.52 19.0408 12.632 19.0408 12.712C19.0408 12.952 18.7488 13.072 18.1648 13.072ZM21.7273 13.072C21.3273 13.072 20.9673 12.952 20.6473 12.712C20.3353 12.464 20.1793 12.032 20.1793 11.416V4.24C20.1793 4.064 20.3393 3.976 20.6593 3.976H20.7073C21.0273 3.976 21.1873 4.064 21.1873 4.24V11.32C21.1873 11.656 21.2433 11.888 21.3553 12.016C21.4753 12.144 21.6353 12.208 21.8353 12.208C21.9873 12.208 22.0993 12.2 22.1713 12.184C22.2513 12.16 22.3113 12.148 22.3513 12.148C22.4233 12.148 22.4833 12.224 22.5313 12.376C22.5793 12.52 22.6033 12.632 22.6033 12.712C22.6033 12.952 22.3113 13.072 21.7273 13.072ZM24.3298 13.024C24.0098 13.024 23.8498 12.936 23.8498 12.76V6.964C23.8498 6.788 24.0098 6.7 24.3298 6.7H24.3778C24.6978 6.7 24.8578 6.788 24.8578 6.964V12.76C24.8578 12.936 24.6978 13.024 24.3778 13.024H24.3298ZM24.3538 5.86C24.0018 5.86 23.8258 5.772 23.8258 5.596V4.876C23.8258 4.7 24.0018 4.612 24.3538 4.612C24.7058 4.612 24.8818 4.7 24.8818 4.876V5.596C24.8818 5.772 24.7058 5.86 24.3538 5.86ZM29.5336 13.072C28.5336 13.072 27.7936 12.812 27.3136 12.292C26.8336 11.772 26.5936 10.976 26.5936 9.904C26.5936 8.84 26.8296 8.032 27.3016 7.48C27.7736 6.928 28.4696 6.652 29.3896 6.652C30.2056 6.652 30.8216 6.92 31.2376 7.456C31.6536 7.984 31.8616 8.76 31.8616 9.784C31.8616 9.856 31.8136 9.956 31.7176 10.084C31.6216 10.212 31.5376 10.276 31.4656 10.276H27.6736C27.7216 10.94 27.8936 11.428 28.1896 11.74C28.4856 12.052 28.9296 12.208 29.5216 12.208C29.8576 12.208 30.1456 12.168 30.3856 12.088C30.6336 12 30.8376 11.916 30.9976 11.836C31.1576 11.748 31.2496 11.704 31.2736 11.704C31.3536 11.704 31.4416 11.784 31.5376 11.944C31.6416 12.104 31.6936 12.224 31.6936 12.304C31.6936 12.4 31.5936 12.512 31.3936 12.64C31.1936 12.76 30.9256 12.864 30.5896 12.952C30.2616 13.032 29.9096 13.072 29.5336 13.072ZM30.7936 9.412C30.7936 8.148 30.3136 7.516 29.3536 7.516C28.3216 7.516 27.7616 8.148 27.6736 9.412H30.7936ZM36.7852 13.024C36.4652 13.024 36.3052 12.936 36.3052 12.76V4.96C36.3052 4.832 36.3332 4.74 36.3892 4.684C36.4452 4.628 36.5372 4.6 36.6652 4.6H39.1012C39.8052 4.6 40.4252 4.768 40.9612 5.104C41.5052 5.44 41.7772 6.056 41.7772 6.952C41.7772 7.616 41.6212 8.132 41.3092 8.5C40.9972 8.868 40.6492 9.116 40.2652 9.244C39.8812 9.364 39.5332 9.424 39.2212 9.424H37.3612V12.76C37.3612 12.936 37.2012 13.024 36.8812 13.024H36.7852ZM39.2332 8.512C39.5772 8.512 39.9052 8.396 40.2172 8.164C40.5292 7.932 40.6852 7.528 40.6852 6.952C40.6852 6.416 40.5252 6.044 40.2052 5.836C39.8852 5.62 39.5052 5.512 39.0652 5.512H37.3612V8.512H39.2332ZM44.5345 13.072C43.9185 13.072 43.4225 12.92 43.0465 12.616C42.6705 12.312 42.4825 11.864 42.4825 11.272C42.4825 10.64 42.6705 10.168 43.0465 9.856C43.4305 9.536 43.8985 9.332 44.4505 9.244C45.0025 9.148 45.6745 9.096 46.4665 9.088V8.524C46.4665 8.228 46.3625 7.988 46.1545 7.804C45.9465 7.612 45.6105 7.516 45.1465 7.516C44.7945 7.516 44.4865 7.56 44.2225 7.648C43.9585 7.728 43.7385 7.812 43.5625 7.9C43.3865 7.98 43.2905 8.02 43.2745 8.02C43.1945 8.02 43.1025 7.94 42.9985 7.78C42.9025 7.62 42.8545 7.5 42.8545 7.42C42.8545 7.316 42.9585 7.204 43.1665 7.084C43.3825 6.964 43.6665 6.864 44.0185 6.784C44.3705 6.696 44.7345 6.652 45.1105 6.652C45.8545 6.652 46.4345 6.82 46.8505 7.156C47.2665 7.484 47.4745 7.944 47.4745 8.536V11.224C47.4745 11.752 47.4985 12.132 47.5465 12.364C47.5945 12.588 47.6185 12.712 47.6185 12.736C47.6185 12.832 47.5425 12.904 47.3905 12.952C47.2385 12.992 47.0985 13.012 46.9705 13.012C46.8585 13.012 46.7745 12.952 46.7185 12.832C46.6705 12.704 46.6305 12.572 46.5985 12.436C46.5745 12.3 46.5585 12.212 46.5505 12.172C46.0065 12.772 45.3345 13.072 44.5345 13.072ZM44.5825 12.196C44.9745 12.196 45.3105 12.124 45.5905 11.98C45.8785 11.836 46.1705 11.632 46.4665 11.368V9.952C45.8665 9.96 45.3745 9.984 44.9905 10.024C44.6145 10.064 44.2825 10.176 43.9945 10.36C43.7065 10.544 43.5625 10.828 43.5625 11.212C43.5625 11.532 43.6465 11.776 43.8145 11.944C43.9905 12.112 44.2465 12.196 44.5825 12.196ZM49.9936 13.024C49.6736 13.024 49.5136 12.936 49.5136 12.76V8.548C49.5136 8.02 49.4896 7.644 49.4416 7.42C49.3936 7.188 49.3696 7.06 49.3696 7.036C49.3696 6.94 49.4456 6.872 49.5976 6.832C49.7496 6.784 49.8896 6.76 50.0176 6.76C50.1296 6.76 50.2096 6.82 50.2576 6.94C50.3136 7.052 50.3536 7.172 50.3776 7.3C50.4096 7.428 50.4296 7.512 50.4376 7.552C50.8616 6.952 51.3256 6.652 51.8296 6.652C52.0616 6.652 52.2336 6.692 52.3456 6.772C52.4656 6.844 52.5256 6.96 52.5256 7.12C52.5256 7.256 52.5016 7.4 52.4536 7.552C52.4056 7.696 52.3496 7.768 52.2856 7.768C52.2456 7.768 52.1656 7.748 52.0456 7.708C51.9336 7.66 51.7936 7.636 51.6256 7.636C51.4176 7.636 51.2176 7.708 51.0256 7.852C50.8336 7.988 50.6656 8.16 50.5216 8.368V12.76C50.5216 12.936 50.3616 13.024 50.0416 13.024H49.9936ZM55.2041 13.108C54.8601 13.108 54.5401 13.068 54.2441 12.988C53.9561 12.9 53.7241 12.796 53.5481 12.676C53.3801 12.556 53.2961 12.448 53.2961 12.352C53.2961 12.272 53.3441 12.152 53.4401 11.992C53.5441 11.832 53.6361 11.752 53.7161 11.752C53.7321 11.752 53.8081 11.796 53.9441 11.884C54.0801 11.972 54.2481 12.052 54.4481 12.124C54.6561 12.196 54.8841 12.232 55.1321 12.232C55.5161 12.232 55.8081 12.156 56.0081 12.004C56.2081 11.852 56.3081 11.632 56.3081 11.344C56.3081 11.056 56.2081 10.836 56.0081 10.684C55.8161 10.532 55.5161 10.388 55.1081 10.252C54.7641 10.14 54.4761 10.02 54.2441 9.892C54.0121 9.756 53.8201 9.568 53.6681 9.328C53.5161 9.08 53.4401 8.764 53.4401 8.38C53.4401 8.044 53.5241 7.744 53.6921 7.48C53.8681 7.216 54.1041 7.012 54.4001 6.868C54.7041 6.716 55.0481 6.64 55.4321 6.64C55.8401 6.64 56.2041 6.692 56.5241 6.796C56.8521 6.9 57.0161 7.02 57.0161 7.156C57.0161 7.26 56.9681 7.396 56.8721 7.564C56.7841 7.724 56.7041 7.804 56.6321 7.804C56.6081 7.796 56.5001 7.744 56.3081 7.648C56.1241 7.544 55.8681 7.492 55.5401 7.492C55.2281 7.492 54.9721 7.564 54.7721 7.708C54.5721 7.852 54.4721 8.048 54.4721 8.296C54.4721 8.528 54.5361 8.708 54.6641 8.836C54.8001 8.964 55.0481 9.088 55.4081 9.208C56.0321 9.416 56.5081 9.668 56.8361 9.964C57.1641 10.26 57.3281 10.684 57.3281 11.236C57.3281 11.588 57.2321 11.908 57.0401 12.196C56.8561 12.476 56.6001 12.7 56.2721 12.868C55.9521 13.028 55.5961 13.108 55.2041 13.108ZM61.2292 13.072C60.3252 13.072 59.6332 12.8 59.1532 12.256C58.6812 11.712 58.4452 10.924 58.4452 9.892C58.4452 8.852 58.6852 8.052 59.1652 7.492C59.6452 6.932 60.3332 6.652 61.2292 6.652C62.1092 6.652 62.7812 6.932 63.2452 7.492C63.7172 8.044 63.9532 8.844 63.9532 9.892C63.9532 10.932 63.7212 11.724 63.2572 12.268C62.8012 12.804 62.1252 13.072 61.2292 13.072ZM61.1932 12.208C61.7772 12.208 62.2092 12.02 62.4892 11.644C62.7692 11.26 62.9092 10.668 62.9092 9.868C62.9092 9.068 62.7692 8.476 62.4892 8.092C62.2092 7.708 61.7772 7.516 61.1932 7.516C60.6092 7.516 60.1812 7.708 59.9092 8.092C59.6372 8.468 59.5012 9.06 59.5012 9.868C59.5012 10.668 59.6372 11.26 59.9092 11.644C60.1812 12.02 60.6092 12.208 61.1932 12.208ZM66.1292 13.024C65.8092 13.024 65.6492 12.936 65.6492 12.76V8.548C65.6492 8.02 65.6252 7.644 65.5772 7.42C65.5292 7.188 65.5052 7.06 65.5052 7.036C65.5052 6.94 65.5812 6.872 65.7332 6.832C65.8852 6.784 66.0252 6.76 66.1532 6.76C66.2652 6.76 66.3452 6.82 66.3932 6.94C66.4492 7.052 66.4892 7.172 66.5132 7.3C66.5452 7.428 66.5652 7.512 66.5732 7.552C66.8292 7.272 67.1212 7.052 67.4492 6.892C67.7772 6.732 68.1092 6.652 68.4452 6.652C69.0532 6.652 69.5292 6.824 69.8732 7.168C70.2252 7.512 70.4012 7.988 70.4012 8.596V12.76C70.4012 12.936 70.2412 13.024 69.9212 13.024H69.8732C69.5532 13.024 69.3932 12.936 69.3932 12.76V8.692C69.3932 8.324 69.2852 8.04 69.0692 7.84C68.8612 7.632 68.5612 7.528 68.1692 7.528C67.8972 7.528 67.6252 7.604 67.3532 7.756C67.0892 7.908 66.8572 8.112 66.6572 8.368V12.76C66.6572 12.936 66.4972 13.024 66.1772 13.024H66.1292ZM73.6729 13.108C73.3289 13.108 73.0089 13.068 72.7129 12.988C72.4249 12.9 72.1929 12.796 72.0169 12.676C71.8489 12.556 71.7649 12.448 71.7649 12.352C71.7649 12.272 71.8129 12.152 71.9089 11.992C72.0129 11.832 72.1049 11.752 72.1849 11.752C72.2009 11.752 72.2769 11.796 72.4129 11.884C72.5489 11.972 72.7169 12.052 72.9169 12.124C73.1249 12.196 73.3529 12.232 73.6009 12.232C73.9849 12.232 74.2769 12.156 74.4769 12.004C74.6769 11.852 74.7769 11.632 74.7769 11.344C74.7769 11.056 74.6769 10.836 74.4769 10.684C74.2849 10.532 73.9849 10.388 73.5769 10.252C73.2329 10.14 72.9449 10.02 72.7129 9.892C72.4809 9.756 72.2889 9.568 72.1369 9.328C71.9849 9.08 71.9089 8.764 71.9089 8.38C71.9089 8.044 71.9929 7.744 72.1609 7.48C72.3369 7.216 72.5729 7.012 72.8689 6.868C73.1729 6.716 73.5169 6.64 73.9009 6.64C74.3089 6.64 74.6729 6.692 74.9929 6.796C75.3209 6.9 75.4849 7.02 75.4849 7.156C75.4849 7.26 75.4369 7.396 75.3409 7.564C75.2529 7.724 75.1729 7.804 75.1009 7.804C75.0769 7.796 74.9689 7.744 74.7769 7.648C74.5929 7.544 74.3369 7.492 74.0089 7.492C73.6969 7.492 73.4409 7.564 73.2409 7.708C73.0409 7.852 72.9409 8.048 72.9409 8.296C72.9409 8.528 73.0049 8.708 73.1329 8.836C73.2689 8.964 73.5169 9.088 73.8769 9.208C74.5009 9.416 74.9769 9.668 75.3049 9.964C75.6329 10.26 75.7969 10.684 75.7969 11.236C75.7969 11.588 75.7009 11.908 75.5089 12.196C75.3249 12.476 75.0689 12.7 74.7409 12.868C74.4209 13.028 74.0649 13.108 73.6729 13.108Z" fill="#002E5C"/>
</svg>
